<?xml version="1.0" encoding="UTF-8" standalone="no"?>
<!-- Created with Inkscape (http://www.inkscape.org/) -->

<svg
   width="32"
   height="32"
   viewBox="0 0 8.4666665 8.4666669"
   version="1.1"
   id="svg907"
   inkscape:version="1.1.2 (0a00cf5339, 2022-02-04)"
   sodipodi:docname="favicon.svg"
   xmlns:inkscape="http://www.inkscape.org/namespaces/inkscape"
   xmlns:sodipodi="http://sodipodi.sourceforge.net/DTD/sodipodi-0.dtd"
   xmlns="http://www.w3.org/2000/svg"
   xmlns:svg="http://www.w3.org/2000/svg">
  <sodipodi:namedview
     id="namedview909"
     pagecolor="#505050"
     bordercolor="#eeeeee"
     borderopacity="1"
     inkscape:pageshadow="0"
     inkscape:pageopacity="0"
     inkscape:pagecheckerboard="0"
     inkscape:document-units="mm"
     showgrid="false"
     units="px"
     inkscape:zoom="3.140625"
     inkscape:cx="47.60199"
     inkscape:cy="-2.2288557"
     inkscape:window-width="1920"
     inkscape:window-height="1012"
     inkscape:window-x="0"
     inkscape:window-y="0"
     inkscape:window-maximized="1"
     inkscape:current-layer="layer1" />
  <defs
     id="defs904" />
  <g
     inkscape:label="Layer 1"
     inkscape:groupmode="layer"
     id="layer1">
    <path
       d="M 3.1233571,3.3375298 V 2.5372587 c 0,-0.7832652 0.1604543,-1.4002742 0.4819633,-1.85542832 0.321909,-0.454754 0.710441,-0.68183079666667 1.164994,-0.68183079666667 0.330513,0 0.607006,0.13024409666667 0.82508,0.39153249666667 0.220675,0.2630891 0.330112,0.5893996 0.330112,0.98553372 0,0.315907 -0.07683,0.5767954 -0.233079,0.779464 -0.153852,0.2042692 -0.351119,0.3049033 -0.5884,0.3049033 -0.243282,0 -0.441749,-0.094632 -0.596002,-0.2820956 -0.152251,-0.1894641 -0.229077,-0.4359476 -0.229077,-0.7408508 0,-0.56719212 0.207871,-0.95032182 0.622211,-1.14838892 v -0.025008 l -0.103435,-0.010403 c -0.213873,0 -0.400536,0.1306443 -0.562391,0.3935333 -0.160054,0.2632891 -0.241882,0.58119682 -0.241882,0.95652382 0,0.3705256 0.07143,0.7012375 0.211472,0.9941367 0.138447,0.2926991 0.2939,0.4885655 0.463357,0.5893996 0.171258,0.099234 0.386731,0.1494507 0.64862,0.1494507 h 0.514374 v 0.2488842 h -0.654422 v 4.627367 h 0.654422 v 0.252685 H 2.5411602 V 8.2139813 H 3.1233571 V 3.586414 H 2.5411602 V 3.3375298 Z"
       id="path16"
       style="stroke-width:0.200067;fill:#d40000" />
  </g>
</svg>
