<?xml version="1.0" encoding="utf-8"?>
<!-- Generator: Adobe Illustrator 15.0.2, SVG Export Plug-In . SVG Version: 6.00 Build 0)  -->
<!DOCTYPE svg PUBLIC "-//W3C//DTD SVG 1.1//EN" "http://www.w3.org/Graphics/SVG/1.1/DTD/svg11.dtd">
<svg version="1.1" id="Layer_1" xmlns="http://www.w3.org/2000/svg" xmlns:xlink="http://www.w3.org/1999/xlink" x="0px" y="0px"
	 viewBox="0 0 367.56 78.184" enable-background="new 0 0 367.56 78.184" xml:space="preserve">
<g>
	<path fill-rule="evenodd" clip-rule="evenodd" d="M144.589,8.802l-29.268-1.833c0.254,0.93,0.38,1.915,0.38,2.958
		c0,2.655-0.907,4.85-2.737,6.55c-1.812,1.716-4.135,2.565-6.926,2.565c-2.865,0-5.204-0.796-7.016-2.37
		c-1.795-1.594-2.702-3.665-2.702-6.231c0-1.739,0.327-3.274,0.981-4.602l-2.793-0.175c-1.022,1.806-1.542,3.861-1.542,6.174
		c0,3.115,0.834,5.894,2.485,8.354c1.631,2.462,3.463,4.107,5.455,4.958c2.014,0.832,4.553,1.256,7.635,1.256h6.055v2.088h-7.705
		V69.93l33.541,2.103L144.589,8.802L144.589,8.802z M77.474,68.087l-19.05,0.621V43.34c0-0.723,0.452-1.956,1.353-3.724
		c0.897-1.76,2.019-3.236,3.314-4.447l0.223,0.216c-0.223,0.452-0.333,1.122-0.333,1.953c0,2.441,0.853,4.466,2.557,6.076
		c1.703,1.608,3.852,2.404,6.463,2.404c1.481,0,2.843-0.281,4.077-0.834l0.552,8.336l0.589-8.952c0.641-0.407,1.241-0.9,1.8-1.479
		c1.908-1.97,2.852-4.396,2.852-7.287c0-2.767-0.815-4.955-2.427-6.563c-0.187-0.194-0.384-0.375-0.589-0.544h3.871v39.922
		L77.474,68.087L77.474,68.087z M26.852,71.27l-14.01,0.897L8.653,8.938l64.765-4.088l1.451,21.896
		c-0.603-0.099-1.237-0.149-1.907-0.149c-4.871,0-9.648,3.616-14.315,10.848h-0.223V25.423c-3.537,0.957-8.02,1.428-13.444,1.428
		H26.847v2.134h6.891v39.722h-6.891L26.852,71.27L26.852,71.27z M87.366,5.216l-7.545-0.472l-1.423,21.662h4.325v-6.728
		C82.724,13.721,84.267,8.91,87.366,5.216L87.366,5.216z"/>
	<g>
		<path d="M187.699,12.525v2.035h0.088c0.379-0.727,1-1.263,1.87-1.615c0.865-0.357,1.82-0.531,2.873-0.531
			c1.024,0,1.864,0.145,2.51,0.432c0.643,0.282,0.964,0.634,0.964,1.051c0,0.355-0.242,0.643-0.733,0.861
			c-0.482,0.217-1.078,0.327-1.773,0.327c-0.692,0-1.277-0.1-1.778-0.305c-0.491-0.201-0.739-0.428-0.739-0.673
			c0-0.305,0.133-0.52,0.408-0.643c0.272-0.124,0.411-0.202,0.411-0.238c0-0.066-0.121-0.101-0.369-0.101
			c-0.791,0-1.539,0.3-2.255,0.901c-0.719,0.6-1.08,1.576-1.08,2.928v2.532h3.518v0.56H179.2v-0.56h2.456v-6.28H179.2v-0.567h3.141
			c1.667,0,2.896-0.019,3.683-0.058l0.847-0.055H187.699L187.699,12.525z"/>
		<path d="M218.296,20.273c-3.165,0-5.687-0.393-7.581-1.176c-1.884-0.785-2.829-1.7-2.829-2.745
			c0-1.055,0.959-1.975,2.876-2.761c1.926-0.786,4.433-1.179,7.533-1.179c3.134,0,5.654,0.39,7.587,1.166
			c1.926,0.775,2.894,1.7,2.894,2.774c0,1.068-0.958,1.988-2.866,2.761C223.992,19.886,221.454,20.273,218.296,20.273
			L218.296,20.273z M218.296,12.884c-0.837,0-1.506,0.08-2.005,0.232c-0.506,0.158-0.814,0.396-0.918,0.721
			c-0.115,0.32-0.168,1.161-0.168,2.515c0,1.319,0.047,2.131,0.154,2.432c0.104,0.3,0.417,0.542,0.94,0.733
			c0.533,0.184,1.24,0.277,2.134,0.277c0.725,0,1.361-0.081,1.902-0.244c0.547-0.159,0.867-0.454,0.982-0.883
			c0.113-0.427,0.163-1.148,0.163-2.168c0-1.587-0.154-2.587-0.471-3C220.696,13.088,219.785,12.884,218.296,12.884L218.296,12.884z
			"/>
		<path d="M249.471,12.414v1.566h0.098c1.669-1.046,4.007-1.566,7.01-1.566c1.338,0,2.516,0.111,3.521,0.333
			c1.01,0.22,1.644,0.447,1.924,0.675c0.275,0.229,0.411,0.578,0.411,1.045v5.018h2.689v0.56h-11.871v-0.56h2.737v-5.153
			c0-0.471-0.159-0.771-0.482-0.913c-0.322-0.141-0.774-0.214-1.354-0.214c-0.791,0-1.764,0.195-2.934,0.583
			c-1.158,0.385-1.748,1.066-1.748,2.032v3.666h2.767v0.56h-11.942v-0.56h2.744v-6.28h-2.693v-0.567h1.726
			c1.556,0,3.092-0.039,4.625-0.112l2.101-0.111H249.471L249.471,12.414z"/>
		<path d="M288.425,15.819v-1.655c0-0.451-0.14-0.764-0.421-0.951c-0.28-0.182-1.006-0.274-2.174-0.274
			c-0.927,0-1.65,0.052-2.17,0.162c-0.521,0.107-0.777,0.213-0.777,0.326c0,0.072,0.184,0.184,0.553,0.333
			c0.371,0.146,0.557,0.328,0.557,0.552c0,0.316-0.305,0.593-0.926,0.822c-0.613,0.231-1.377,0.347-2.311,0.347
			c-0.848,0-1.58-0.11-2.193-0.327c-0.612-0.215-0.918-0.485-0.918-0.799c0-0.536,0.823-0.995,2.465-1.375
			c1.643-0.378,3.924-0.566,6.832-0.566c2.249,0,4.131,0.111,5.652,0.333c1.518,0.22,2.275,0.716,2.275,1.488v3.887
			c0,0.67,0.482,1.004,1.44,1.004c0.267,0,0.637-0.061,1.114-0.178l0.631,0.416c-1.333,0.61-2.89,0.91-4.644,0.91
			c-1.848,0-3.383-0.368-4.632-1.112c-2.056,0.744-4.352,1.112-6.864,1.112c-1.702,0-3.036-0.173-4.013-0.519
			c-0.977-0.348-1.464-0.777-1.464-1.294C276.438,16.826,280.434,15.94,288.425,15.819L288.425,15.819z M288.425,17.503v-1.196
			c-2.118,0.03-3.602,0.163-4.433,0.391c-0.838,0.228-1.256,0.615-1.256,1.155c0,0.417,0.266,0.746,0.782,0.985
			c0.515,0.239,1.192,0.359,2.007,0.359c0.922,0,1.642-0.12,2.147-0.359C288.176,18.6,288.425,18.153,288.425,17.503L288.425,17.503
			z"/>
		<path d="M318.029,7.527v11.958h1.981v0.56h-10.552v-0.56h2.127V8.264h-2.127V7.701c1.982,0,3.947-0.027,5.879-0.09
			l1.909-0.083H318.029L318.029,7.527z"/>
		<path d="M350.842,7.527v11.974h2.568v0.544h-2.947c-0.961,0-1.852,0.009-2.689,0.028l-2.692,0.081h-0.66v-1.112
			h-0.097c-1.006,0.82-2.569,1.231-4.696,1.231c-2.063,0-3.867-0.387-5.415-1.161c-1.547-0.777-2.329-1.739-2.329-2.88
			c0-1.099,0.79-2.008,2.362-2.733c1.58-0.721,3.398-1.086,5.479-1.086c1.764,0,3.326,0.313,4.696,0.939V8.264h-3.829V7.701h3.379
			c0.773,0,2.061-0.027,3.874-0.087C349.648,7.556,350.655,7.527,350.842,7.527L350.842,7.527z M344.421,17.183v-1.979
			c0-0.765-0.364-1.335-1.095-1.707c-0.733-0.373-1.485-0.558-2.258-0.558c-0.594,0-1.062,0.131-1.39,0.395
			c-0.332,0.264-0.495,0.799-0.495,1.604v2.769c0,0.767,0.122,1.281,0.361,1.545c0.242,0.266,0.695,0.397,1.341,0.397
			c0.675,0,1.435-0.175,2.27-0.516C344.001,18.792,344.421,18.141,344.421,17.183L344.421,17.183z"/>
		<path d="M160.028,29.348v-4c0-3.915,0.802-6.999,2.409-9.274c1.609-2.273,3.551-3.408,5.823-3.408
			c1.652,0,3.034,0.651,4.124,1.957c1.103,1.315,1.65,2.946,1.65,4.926c0,1.579-0.384,2.883-1.165,3.896
			c-0.769,1.021-1.755,1.524-2.941,1.524c-1.216,0-2.208-0.473-2.979-1.41c-0.761-0.947-1.145-2.179-1.145-3.703
			c0-2.835,1.039-4.75,3.11-5.74v-0.125l-0.517-0.052c-1.069,0-2.002,0.653-2.811,1.967c-0.8,1.316-1.209,2.905-1.209,4.781
			c0,1.852,0.357,3.505,1.057,4.969c0.692,1.463,1.469,2.442,2.316,2.946c0.856,0.496,1.933,0.747,3.242,0.747h2.571v1.244h-3.271
			v23.129h3.271v1.263h-16.445v-1.263h2.91V30.592h-2.91v-1.244H160.028L160.028,29.348z"/>
		<path d="M197.833,42.035h-12.028v5.484c0,1.747,0.077,2.989,0.224,3.727c0.151,0.748,0.447,1.347,0.882,1.821
			c0.435,0.474,0.979,0.716,1.627,0.716c1.347,0,2.77-0.622,4.249-1.853c1.48-1.232,2.796-2.906,3.936-5.032l0.725,1.084
			c-2.902,5.222-6.415,7.833-10.537,7.833c-3.415,0-6.257-1.253-8.535-3.748c-2.278-2.497-3.419-5.59-3.419-9.263
			c0-3.949,1.162-7.255,3.488-9.918c2.317-2.665,5.229-4,8.716-4c2.719,0,5.075,1.178,7.045,3.537
			C196.182,34.782,197.392,37.982,197.833,42.035L197.833,42.035z M190.072,40.762v-7.306c0-2.243-0.678-3.359-2.036-3.359
			c-1.485,0-2.231,1.116-2.231,3.359v7.306H190.072L190.072,40.762z"/>
		<path d="M212.245,35.519c1.938-4.212,3.926-6.316,5.95-6.316c1.133,0,2.033,0.474,2.696,1.421
			c0.668,0.939,1.009,2.21,1.009,3.82c0,1.686-0.394,3.097-1.186,4.244c-0.784,1.136-1.764,1.706-2.918,1.706
			c-1.085,0-1.979-0.462-2.686-1.401c-0.71-0.938-1.062-2.116-1.062-3.539c0-0.481,0.044-0.873,0.136-1.135l-0.092-0.126
			c-0.538,0.705-1,1.569-1.378,2.59c-0.367,1.031-0.562,1.747-0.562,2.167v14.771h3.004v1.263h-16.129v-1.263h2.864V30.592h-2.864
			v-1.244h7.536c2.258,0,4.123-0.271,5.589-0.829v7H212.245L212.245,35.519z"/>
		<path d="M229.706,46.256c-0.737,0.515-1.106,1.106-1.106,1.79c0,1.126,1.059,1.693,3.178,1.693h1.716l2.681-0.06
			h2.211c5.642,0,8.459,2.894,8.459,8.663c0,3.4-1.145,6.083-3.441,8.064c-2.293,1.99-5.406,2.978-9.348,2.978
			c-2.961,0-5.357-0.663-7.195-1.999c-1.835-1.339-2.751-3.044-2.751-5.126c0-1.084,0.393-2.35,1.171-3.792
			c-0.84-1.335-1.264-2.777-1.264-4.315c0-3.316,1.557-6.064,4.676-8.264c-3.329-1.767-4.99-4.294-4.99-7.589
			c0-2.758,0.977-5.011,2.924-6.769c1.949-1.759,4.56-2.643,7.837-2.643c1.172,0,2.287,0.157,3.336,0.462
			c0.423-1.989,1.123-3.567,2.104-4.746c0.977-1.168,2.009-1.758,3.109-1.758c0.784,0,1.424,0.316,1.929,0.946
			c0.504,0.621,0.759,1.443,0.759,2.454c0,0.978-0.255,1.81-0.759,2.472c-0.505,0.675-1.13,1.011-1.884,1.011
			c-0.74,0-1.332-0.293-1.787-0.883c-0.444-0.592-0.67-1.349-0.67-2.296c0-0.452,0.049-0.778,0.157-0.991l-0.095-0.125
			c-0.979,0.865-1.654,2.231-2.047,4.106c5.302,1.622,7.962,4.653,7.962,9.095c0,3-1.133,5.203-3.405,6.601
			c-2.273,1.401-4.836,2.096-7.693,2.096C233.387,47.33,231.463,46.974,229.706,46.256L229.706,46.256z M237.059,43.299V32.993
			c0-1.927-0.578-2.896-1.717-2.896c-1.322,0-1.984,0.969-1.984,2.896v10.306c0,2.051,0.629,3.085,1.893,3.085
			C236.46,46.384,237.059,45.35,237.059,43.299L237.059,43.299z M225.91,59.204c-0.271,0.622-0.4,1.315-0.4,2.106
			c0,1.905,0.855,3.507,2.58,4.779c1.726,1.275,3.933,1.907,6.643,1.907c2.057,0,3.658-0.371,4.806-1.127
			c1.14-0.748,1.716-1.779,1.716-3.095c0-0.906-0.274-1.664-0.822-2.263c-0.557-0.61-1.909-0.916-4.071-0.916l-5.87,0.337
			C228.46,60.932,226.934,60.363,225.91,59.204L225.91,59.204z"/>
		<path d="M277.613,54.984h-12.836v-3.274c-2.512,2.737-5.099,4.106-7.762,4.106c-1.647,0-3.088-0.505-4.32-1.526
			c-1.224-1.021-1.831-2.896-1.831-5.631V30.592h-2.394v-1.244h7.561c1.518,0,3.215-0.271,5.096-0.829v19.706
			c0,1.422,0.084,2.37,0.271,2.842c0.178,0.474,0.481,0.706,0.924,0.706c0.807,0,1.629-0.589,2.455-1.79V30.592h-2.596v-1.244h7.854
			c1.688,0,3.358-0.271,5.027-0.829v25.202h2.551V54.984L277.613,54.984z"/>
		<path d="M297.391,39.191c-0.332-3.167-1.365-5.473-3.11-6.925c-1.749-1.445-3.497-2.169-5.259-2.169
			c-0.508,0-0.923,0.147-1.239,0.441c-0.315,0.306-0.471,0.675-0.471,1.128c0,0.514,0.163,0.947,0.495,1.314
			c0.328,0.36,0.836,0.758,1.509,1.212c2.847,1.979,4.787,3.378,5.844,4.21c1.054,0.831,1.861,1.6,2.438,2.286
			c0.571,0.694,1.013,1.556,1.317,2.61c0.307,1.042,0.465,2.168,0.465,3.358c0,2.777-0.803,4.999-2.412,6.661
			c-1.609,1.666-3.781,2.497-6.497,2.497c-3.125,0-5.829-1.002-8.099-2.989l-2.959,3.177v-11.81h0.971
			c0.201,2.916,1.142,5.241,2.834,6.98c1.695,1.736,3.773,2.609,6.234,2.609c1.357,0,2.035-0.695,2.035-2.074
			c0-0.569-0.141-1.043-0.426-1.401c-0.277-0.356-0.77-0.693-1.468-0.999c-3.72-1.746-6.322-3.537-7.808-5.38
			c-1.488-1.842-2.234-3.84-2.234-5.999c0-2.844,0.822-5.182,2.475-7.024c1.645-1.83,3.733-2.759,6.257-2.759
			c2.102,0,4.302,0.865,6.604,2.591l3.474-2.799v11.251H297.391L297.391,39.191z"/>
		<path d="M314.291,28.886c3.982,0,7.143,1.297,9.478,3.862c2.34,2.569,3.512,6.001,3.512,10.298
			c0,3.883-1.181,6.989-3.526,9.306c-2.355,2.304-5.531,3.463-9.51,3.463c-3.895,0-7.021-1.2-9.386-3.591
			c-2.364-2.4-3.538-5.536-3.538-9.419c0-4.182,1.174-7.538,3.538-10.086C307.223,30.17,310.365,28.886,314.291,28.886
			L314.291,28.886z M316.387,50.635V33.95c0-1.485-0.154-2.506-0.457-3.074c-0.299-0.558-0.846-0.842-1.639-0.842
			c-0.784,0-1.332,0.316-1.648,0.936c-0.316,0.632-0.477,1.707-0.477,3.223v16.442c0,1.444,0.146,2.454,0.438,3.033
			c0.294,0.588,0.793,0.884,1.502,0.884c0.84,0,1.432-0.296,1.771-0.896C316.218,53.055,316.387,52.057,316.387,50.635
			L316.387,50.635z"/>
		<path d="M358.653,54.984h-14.657v-1.263h1.579V35.644c0-2.136-0.465-3.209-1.382-3.209
			c-0.73,0-1.586,0.589-2.548,1.757v19.529h1.58v1.263H328.52v-1.263h2.865V30.592h-2.865v-1.244h8.594
			c1.417,0,2.926-0.271,4.532-0.829v4.167c2.526-2.524,5.066-3.8,7.622-3.8c1.779,0,3.32,0.611,4.623,1.821
			c1.299,1.222,1.945,3.348,1.945,6.391v16.623h2.817V54.984L358.653,54.984z"/>
		<path d="M179.917,24.767c-0.227,0-0.41-0.179-0.41-0.401s0.184-0.401,0.41-0.401h57.537
			c-0.174,0.26-0.339,0.53-0.49,0.803H179.917L179.917,24.767z M247.692,23.964h105.445c0.228,0,0.411,0.179,0.411,0.401
			s-0.184,0.401-0.411,0.401h-105.22C247.861,24.494,247.784,24.225,247.692,23.964L247.692,23.964z"/>
	</g>
</g>
</svg>
